<?xml version="1.0" encoding="utf-8" ?>
<svg baseProfile="full" height="100%" version="1.1" viewBox="0,0,1000,160" width="100%" xmlns="http://www.w3.org/2000/svg" xmlns:ev="http://www.w3.org/2001/xml-events" xmlns:xlink="http://www.w3.org/1999/xlink"><defs /><path d="M0,0 M36.90947341918945,33.517303466796875 L36.91816329956055,34.29168701171875 L36.903018951416016,35.696041107177734 L36.85752487182617,37.6729621887207 L36.77482986450195,39.953147888183594 L36.663490295410156,42.3773078918457 L36.53831100463867,44.767154693603516 L36.421165466308594,46.990909576416016 L36.31263732910156,48.846710205078125 L36.2428092956543,50.175132751464844 L36.21211624145508,50.90760803222656 L36.208343505859375,51.1694221496582 L36.215518951416016,51.16395568847656 M33.52518844604492,31.90604019165039 L33.95568084716797,31.474807739257812 L34.7850456237793,30.884441375732422 L36.02097702026367,30.30844497680664 L37.55491256713867,30.0 L39.305606842041016,30.007266998291016 L41.12070083618164,30.361522674560547 L42.84104537963867,31.022891998291016 L44.26658248901367,31.95199203491211 L45.19304656982422,33.07175064086914 L45.508201599121094,34.3060302734375 L45.187171936035156,35.56749725341797 L44.27346420288086,36.789424896240234 L42.97899627685547,37.89628601074219 L41.55024337768555,38.81678009033203 L40.38410949707031,39.44218444824219 L39.678531646728516,39.77345657348633 M50.841976165771484,40.66799545288086 L50.676456451416016,40.60677719116211 L50.28349685668945,40.595001220703125 L49.62156295776367,40.76978302001953 L48.712982177734375,41.28653335571289 L47.66069030761719,42.236175537109375 L46.61402893066406,43.62034606933594 L45.75205612182617,45.32866287231445 L45.245445251464844,47.145286560058594 L45.225929260253906,48.821983337402344 L45.70591354370117,50.103431701660156 L46.638587951660156,50.81338119506836 L47.89398193359375,50.851505279541016 L49.32489013671875,50.23517608642578 L50.76178741455078,49.05043411254883 L52.03117370605469,47.47181701660156 L52.96213912963867,45.69253921508789 L53.44874572753906,43.923404693603516 L53.44542694091797,42.33921432495117 L52.995975494384766,41.078834533691406 L52.212520599365234,40.25402069091797 L51.2701416015625,39.92378234863281 L50.36374282836914,40.04486846923828 L49.70166778564453,40.37146759033203 L49.344154357910156,40.68726348876953 M58.15098190307617,40.068729400634766 L58.03422164916992,39.9697265625 L57.86362838745117,39.96501922607422 L57.65113067626953,40.22359085083008 L57.431861877441406,40.924747467041016 L57.20955276489258,42.09568786621094 L57.02732849121094,43.651859283447266 L56.95338439941406,45.41608810424805 L57.10367965698242,47.15365982055664 L57.547576904296875,48.61376953125 L58.310264587402344,49.608428955078125 L59.351619720458984,50.00575256347656 L60.57514953613281,49.770877838134766 L61.876976013183594,48.96242141723633 L63.148433685302734,47.693458557128906 L64.2933578491211,46.130088806152344 L65.23451232910156,44.47008514404297 L65.9175796508789,42.912864685058594 L66.3261489868164,41.61551284790039 L66.50174713134766,40.68517303466797 L66.51577758789062,40.18401336669922 L66.45713806152344,40.177371978759766 L66.38533782958984,40.700645446777344 L66.3196029663086,41.77412796020508 L66.26939392089844,43.32094955444336 L66.23957824707031,45.12183380126953 L66.23980712890625,46.888092041015625 L66.2622299194336,48.226890563964844 L66.29177856445312,48.9849739074707 M71.34254455566406,40.69486999511719 L71.35537719726562,40.80555725097656 L71.37644958496094,41.17610168457031 L71.38343048095703,41.933040618896484 L71.34326934814453,43.08723068237305 L71.23423767089844,44.51259994506836 L71.08000946044922,46.00262451171875 L70.9456787109375,47.347747802734375 L70.88619995117188,48.37781524658203 L70.91654205322266,48.988338470458984 L71.01161193847656,49.10084533691406 L71.157470703125,48.6856803894043 L71.35185241699219,47.72834777832031 L71.63848114013672,46.324371337890625 L72.06468200683594,44.67444610595703 L72.64041137695312,43.01104736328125 L73.3477783203125,41.53216552734375 L74.18905639648438,40.365543365478516 L75.1457290649414,39.52907180786133 L76.21711730957031,39.01953125 L77.45027923583984,38.84926986694336 L78.82225036621094,38.97232437133789 L80.25981140136719,39.30238342285156 L81.4488525390625,39.6595573425293 L82.20768737792969,39.91416931152344 M91.8485107421875,45.5388069152832 L92.30018615722656,45.472007751464844 L93.14542388916016,45.28936767578125 L94.35002136230469,44.94682693481445 L95.7222900390625,44.426883697509766 L97.11060333251953,43.744022369384766 L98.37434387207031,42.92502212524414 L99.40876770019531,41.986122131347656 L100.14908599853516,40.97149658203125 L100.55236053466797,39.945396423339844 L100.59429931640625,38.99991989135742 L100.26492309570312,38.26142120361328 L99.56514739990234,37.85514831542969 L98.52787017822266,37.88292694091797 L97.23495483398438,38.41036605834961 L95.83757781982422,39.447593688964844 L94.53872680664062,40.934356689453125 L93.5361099243164,42.74864196777344 L92.99675750732422,44.720848083496094 L93.0099868774414,46.65697479248047 L93.64414978027344,48.31034851074219 L94.85405731201172,49.495059967041016 L96.48458099365234,50.10801315307617 L97.98483276367188,50.2758903503418 L99.01206970214844,50.21232223510742 M106.02942657470703,39.5121955871582 L105.81403350830078,39.493656158447266 L105.48281860351562,39.70789337158203 L105.07049560546875,40.348175048828125 L104.66693115234375,41.5192756652832 L104.31967163085938,43.1053352355957 L104.1109619140625,44.895694732666016 L104.11721801757812,46.62692642211914 L104.4096450805664,48.07126235961914 L104.99169921875,49.053627014160156 L105.82417297363281,49.45054244995117 L106.83881378173828,49.204010009765625 L107.9577865600586,48.33384704589844 L109.09493255615234,46.94866943359375 L110.17658996582031,45.23792266845703 L111.1258773803711,43.45976257324219 L111.87950134277344,41.857398986816406 L112.41104125976562,40.62405776977539 L112.70774841308594,39.87755584716797 L112.80191802978516,39.69346618652344 L112.76213073730469,40.11231994628906 L112.6275863647461,41.14691925048828 L112.44186401367188,42.7106819152832 L112.27244567871094,44.611328125 L112.22538757324219,46.54865264892578 L112.41014862060547,48.21047592163086 L112.87052154541016,49.37043380737305 L113.39696502685547,49.99317169189453 L113.80941009521484,50.210105895996094 M118.12151336669922,40.27518844604492 L118.13525390625,40.565101623535156 L118.14549255371094,41.259735107421875 L118.12630462646484,42.45779037475586 L118.05089569091797,44.12657165527344 L117.90188598632812,46.161643981933594 L117.66089630126953,48.40016174316406 L117.33727264404297,50.653038024902344 L116.96337890625,52.710731506347656 L116.60336303710938,54.36048889160156 L116.32418060302734,55.415931701660156 L116.17865753173828,55.77588653564453 L116.16423034667969,55.402835845947266 L116.26964569091797,54.326805114746094 L116.47297668457031,52.665977478027344 L116.7778091430664,50.603145599365234 L117.19364166259766,48.33734893798828 L117.7690200805664,46.08007049560547 L118.52298736572266,43.98939514160156 L119.48314666748047,42.18277359008789 L120.64208221435547,40.787445068359375 L121.9465560913086,39.92333984375 L123.2999038696289,39.660125732421875 L124.58829498291016,40.00422668457031 L125.66470336914062,40.86817169189453 L126.40003204345703,42.09788513183594 L126.69127655029297,43.521278381347656 L126.48543548583984,44.983970642089844 L125.79224395751953,46.3310432434082 L124.68012237548828,47.43344497680664 L123.30558013916016,48.19804763793945 L121.84996032714844,48.59960174560547 L120.54206085205078,48.59160232543945 L119.57811737060547,48.19626998901367 L119.06468963623047,47.46794509887695 L118.90457153320312,46.71124267578125 L118.94589233398438,46.14535903930664 M129.83041381835938,34.842891693115234 L129.78775024414062,35.351585388183594 L129.68801879882812,36.335960388183594 L129.5176239013672,37.798004150390625 L129.297119140625,39.57304000854492 L129.0543212890625,41.51729965209961 L128.85023498535156,43.44974899291992 L128.71749877929688,45.190189361572266 L128.6815185546875,46.58172607421875 L128.7300262451172,47.48223876953125 L128.8645782470703,47.81472396850586 L129.09622192382812,47.574249267578125 L129.47508239746094,46.79730987548828 L130.04595947265625,45.58435821533203 L130.85801696777344,44.14148712158203 L131.8951416015625,42.67085266113281 L133.10684204101562,41.37385940551758 L134.40618896484375,40.40785217285156 L135.68264770507812,39.8621711730957 L136.82215881347656,39.77898025512695 L137.72854614257812,40.185081481933594 L138.32669067382812,41.045536041259766 L138.5858917236328,42.27102279663086 L138.54165649414062,43.7193603515625 L138.3027801513672,45.223487854003906 L138.0191192626953,46.600582122802734 L137.81605529785156,47.70656204223633 L137.73060607910156,48.42645263671875 L137.72915649414062,48.78273391723633 M146.9215850830078,40.98272705078125 L146.67880249023438,40.61114501953125 L146.26113891601562,40.134769439697266 L145.6713409423828,39.74150085449219 L144.9449462890625,39.68354034423828 L144.1010284423828,40.057044982910156 L143.18392944335938,40.87993621826172 L142.29769897460938,42.07942199707031 L141.61724853515625,43.545372009277344 L141.29371643066406,45.09141159057617 L141.42868041992188,46.5005989074707 L142.06980895996094,47.586761474609375 L143.1621551513672,48.20814514160156 L144.573486328125,48.284828186035156 L146.1240234375,47.80705261230469 L147.60426330566406,46.84821319580078 L148.82717895507812,45.546451568603516 L149.63986206054688,44.07655334472656 L149.9886016845703,42.63587951660156 L149.8965606689453,41.371761322021484 L149.47793579101562,40.39214324951172 L148.9169158935547,39.757442474365234 L148.38803100585938,39.4605827331543 L148.01406860351562,39.389854431152344 L147.82937622070312,39.43165969848633 M153.96109008789062,40.09852981567383 L153.9243927001953,40.11423110961914 L153.87930297851562,40.302913665771484 L153.8140106201172,40.8040771484375 L153.71951293945312,41.69807434082031 L153.57376098632812,42.929283142089844 L153.38015747070312,44.34943771362305 L153.1746063232422,45.74374008178711 L153.0185089111328,46.92909240722656 L152.93417358398438,47.771026611328125 L152.92190551757812,48.179931640625 L152.95687866210938,48.116451263427734 L153.0242919921875,47.559425354003906 L153.1250457763672,46.52159881591797 L153.28802490234375,45.117088317871094 L153.52854919433594,43.51963806152344 L153.8740692138672,41.91810989379883 L154.35772705078125,40.47739028930664 L155.02554321289062,39.29385757446289 L155.89666748046875,38.4101676940918 L156.97801208496094,37.8563346862793 L158.21617126464844,37.645294189453125 L159.5410919189453,37.770633697509766 L160.86590576171875,38.19562911987305 L162.1115264892578,38.83883285522461 L163.20115661621094,39.59823226928711 L164.0982208251953,40.364234924316406 L164.7798614501953,41.04449462890625 L165.2560577392578,41.59034729003906 L165.5420379638672,41.99596405029297 L165.68016052246094,42.27633285522461 L165.7189178466797,42.47723388671875 L165.70162963867188,42.66023254394531 L165.64256286621094,42.90749740600586 L165.54029846191406,43.32120895385742 L165.3691864013672,43.997474670410156 L165.1269989013672,44.97526550292969 L164.8557891845703,46.22493362426758 L164.6057586669922,47.6325798034668 L164.41815185546875,49.043426513671875 L164.33811950683594,50.21974563598633 L164.3751220703125,50.95865249633789 L164.51258850097656,51.14476013183594 L164.679443359375,50.97491455078125 L164.8125457763672,50.69076156616211 M166.06690979003906,34.29951095581055 L166.06390380859375,34.257747650146484 L166.0869140625,34.258419036865234 L166.12496948242188,34.29508590698242 L166.1671905517578,34.36132049560547 M176.6988525390625,41.43063735961914 L176.47276306152344,41.140228271484375 L176.01666259765625,40.751625061035156 L175.28074645996094,40.43806838989258 L174.28460693359375,40.43259811401367 L173.06298828125,40.84315490722656 L171.75271606445312,41.69831466674805 L170.53564453125,42.90595626831055 L169.64401245117188,44.32526779174805 L169.2792205810547,45.80609130859375 L169.5642547607422,47.184417724609375 L170.49017333984375,48.34084701538086 L172.04771423339844,49.15667724609375 L174.0790252685547,49.560794830322266 L176.36045837402344,49.551719665527344 L178.28884887695312,49.33134078979492 L179.53614807128906,49.08494186401367 M196.1901397705078,40.06291198730469 L196.08493041992188,39.756690979003906 L195.77908325195312,39.29863739013672 L195.1597442626953,38.80617904663086 L194.15248107910156,38.47014617919922 L192.77223205566406,38.36024475097656 L191.15806579589844,38.50341796875 L189.5535125732422,38.860107421875 L188.24932861328125,39.400146484375 L187.5043182373047,40.09814453125 L187.45233154296875,40.942100524902344 L188.11509704589844,41.89684295654297 L189.41531372070312,42.924434661865234 L191.1907501220703,43.9673957824707 L193.20437622070312,44.97816467285156 L195.17645263671875,45.906898498535156 L196.8113555908203,46.71688461303711 L197.8819580078125,47.37588119506836 L198.26116943359375,47.87651824951172 L197.9224090576172,48.218502044677734 L196.918212890625,48.43206787109375 L195.38938903808594,48.53809356689453 L193.53421020507812,48.54751968383789 L191.5936737060547,48.48752975463867 L189.85812377929688,48.335243225097656 L188.55941772460938,48.060001373291016 L187.8343963623047,47.674041748046875 L187.58541870117188,47.29964065551758 L187.60841369628906,47.023311614990234 M203.85545349121094,32.78169250488281 L203.87974548339844,32.80595397949219 L203.88345336914062,33.02764892578125 L203.8157958984375,33.622161865234375 L203.64393615722656,34.71821212768555 L203.3585968017578,36.3209342956543 L202.97396850585938,38.34244918823242 L202.53338623046875,40.62398910522461 L202.12005615234375,43.01366424560547 L201.79690551757812,45.31800079345703 L201.63003540039062,47.33899688720703 L201.58966064453125,48.777854919433594 L201.6153564453125,49.569549560546875 M200.23936462402344,42.325469970703125 L200.46963500976562,42.10642623901367 L201.03851318359375,41.78508377075195 L202.02439880371094,41.42593765258789 L203.3849639892578,41.12238693237305 L205.00775146484375,40.88275909423828 L206.74490356445312,40.70082473754883 L208.44793701171875,40.54939270019531 L209.97561645507812,40.44809341430664 L211.1885986328125,40.39316940307617 L211.99215698242188,40.391387939453125 L212.37318420410156,40.47383499145508 L212.38192749023438,40.68088150024414 L212.125244140625,41.081443786621094 L211.6984405517578,41.75588607788086 L211.18719482421875,42.707618713378906 L210.67161560058594,43.89563751220703 L210.2248077392578,45.225830078125 L209.90574645996094,46.55283737182617 L209.74058532714844,47.750919342041016 L209.7003936767578,48.636871337890625 L209.729248046875,49.069522857666016 L209.7739715576172,48.99886703491211 L209.80227661132812,48.66313171386719 L209.8123779296875,48.29991149902344 M211.4372100830078,33.73645782470703 L211.53575134277344,33.59758377075195 L211.69325256347656,33.45721435546875 L211.8538818359375,33.35724639892578 L211.96173095703125,33.33958435058594 M220.5434112548828,32.5211181640625 L220.53668212890625,32.83686065673828 L220.4431610107422,33.50202178955078 L220.20904541015625,34.59512710571289 L219.80804443359375,36.09323501586914 L219.29287719726562,37.95978546142578 L218.72996520996094,40.105350494384766 L218.20008850097656,42.391300201416016 L217.8038330078125,44.62857437133789 L217.60971069335938,46.596805572509766 L217.62904357910156,48.1019401550293 L217.7647705078125,49.02570343017578 L217.9080810546875,49.44322204589844 M224.5824737548828,33.309349060058594 L224.56365966796875,33.635589599609375 L224.48362731933594,34.350181579589844 L224.30885314941406,35.51643371582031 L224.02005004882812,37.08922576904297 L223.62728881835938,38.99937057495117 L223.15687561035156,41.14687728881836 L222.6565704345703,43.40692901611328 L222.22760009765625,45.597686767578125 L221.98358154296875,47.48486328125 L221.99427795410156,48.887718200683594 L222.15977478027344,49.71891403198242 L222.35301208496094,50.075374603271484 M240.26968383789062,39.64458084106445 L240.2461395263672,40.135765075683594 L240.1482391357422,41.07309341430664 L239.94131469726562,42.428550720214844 L239.62796020507812,44.01116180419922 L239.25389099121094,45.65203857421875 L238.87716674804688,47.1793098449707 L238.5628662109375,48.48727798461914 L238.37826538085938,49.35743713378906 L238.35716247558594,49.62033462524414 L238.50355529785156,49.20677185058594 L238.7091827392578,48.486351013183594 L238.8809051513672,47.81797409057617 M242.13076782226562,32.575435638427734 L242.13912963867188,32.50429153442383 L242.17877197265625,32.44343185424805 L242.23301696777344,32.40944290161133 L242.28521728515625,32.418914794921875 M245.486083984375,38.97194290161133 L245.50682067871094,39.04259490966797 L245.5115509033203,39.26168441772461 L245.4649200439453,39.72343444824219 L245.33287048339844,40.491275787353516 L245.1036376953125,41.5606575012207 L244.796875,42.86937713623047 L244.47207641601562,44.28945541381836 L244.1854705810547,45.65763473510742 L243.9979248046875,46.828643798828125 L243.9525909423828,47.68171310424805 L244.05426025390625,48.12194061279297 L244.3155059814453,48.09317398071289 L244.74700927734375,47.56932830810547 L245.3317108154297,46.581642150878906 L246.06309509277344,45.2616081237793 L246.93150329589844,43.79065704345703 L247.90829467773438,42.357669830322266 L248.98770141601562,41.11444854736328 L250.1296844482422,40.15157699584961 L251.26341247558594,39.52162551879883 L252.3177032470703,39.276180267333984 L253.23275756835938,39.452171325683594 L253.9487762451172,40.049930572509766 L254.4407196044922,41.04275131225586 L254.67056274414062,42.346256256103516 L254.64505004882812,43.851070404052734 L254.42056274414062,45.42082595825195 L254.14471435546875,46.90242385864258 L253.968017578125,48.12759780883789 L253.99911499023438,48.985286712646484 L254.15719604492188,49.45305252075195 L254.3358612060547,49.62565612792969 M268.4117736816406,33.73168182373047 L268.483642578125,33.76895523071289 L268.5810546875,33.9857292175293 L268.6519775390625,34.517295837402344 L268.6329650878906,35.450836181640625 L268.46295166015625,36.77146911621094 L268.1299743652344,38.414546966552734 L267.66058349609375,40.27617645263672 L267.10040283203125,42.25226593017578 L266.5171813964844,44.21818542480469 L266.002685546875,46.017372131347656 L265.58514404296875,47.503421783447266 L265.3321228027344,48.46143341064453 L265.28729248046875,48.747032165527344 L265.4443359375,48.35516357421875 L265.68023681640625,47.673526763916016 L265.8949890136719,47.05251693725586 M269.25146484375,34.656585693359375 L269.3709411621094,34.27043151855469 L269.57342529296875,33.813072204589844 L269.8435974121094,33.488460540771484 L270.15045166015625,33.553985595703125 L270.4976501464844,34.071327209472656 L270.9103088378906,35.04480743408203 L271.4246520996094,36.41515350341797 L272.0423278808594,38.12073516845703 L272.75732421875,40.03217697143555 L273.56646728515625,42.00093460083008 L274.4482727050781,43.87998962402344 L275.34429931640625,45.51996994018555 L276.1766662597656,46.80026626586914 L276.8529052734375,47.628273010253906 L277.32415771484375,47.90782165527344 L277.6361083984375,47.58913803100586 L277.8790588378906,46.662086486816406 L278.1247253417969,45.17996597290039 L278.426025390625,43.29050064086914 L278.7920227050781,41.1932258605957 L279.2038879394531,39.060298919677734 L279.66943359375,37.04801559448242 L280.1969909667969,35.26737594604492 L280.76324462890625,33.81875228881836 L281.328125,32.762718200683594 L281.7751159667969,32.13371276855469 L282.04217529296875,31.850482940673828 M282.25115966796875,46.34913635253906 L282.76422119140625,46.225990295410156 L283.675537109375,45.87260055541992 L284.91082763671875,45.202701568603516 L286.2445373535156,44.209686279296875 L287.5340881347656,42.98124694824219 L288.64654541015625,41.63448715209961 L289.491943359375,40.31831359863281 L289.98809814453125,39.15703201293945 L290.0616455078125,38.27406311035156 L289.676025390625,37.78517150878906 L288.8475036621094,37.77729034423828 L287.6783447265625,38.285614013671875 L286.36688232421875,39.28700637817383 L285.1522521972656,40.675479888916016 L284.26043701171875,42.31822967529297 L283.9429931640625,44.08287811279297 L284.2892150878906,45.79253387451172 L285.2508239746094,47.28907775878906 L286.34344482421875,48.34984588623047 L287.1841125488281,48.92418670654297 M294.83758544921875,39.461551666259766 L294.8820495605469,39.56904602050781 L294.95281982421875,39.893672943115234 L295.0282287597656,40.551387786865234 L295.0779113769531,41.59004211425781 L295.0898132324219,42.965858459472656 L295.0987243652344,44.56483459472656 L295.1617431640625,46.20235824584961 L295.331787109375,47.690486907958984 L295.6285705566406,48.87144088745117 L296.03955078125,49.61531448364258 L296.5249938964844,49.838783264160156 L297.09039306640625,49.51791763305664 L297.7430114746094,48.65986251831055 L298.4700927734375,47.349327087402344 L299.2274169921875,45.7372932434082 L299.9459533691406,43.97026062011719 L300.5474548339844,42.22540283203125 L301.0024719238281,40.66069030761719 L301.2882080078125,39.519962310791016 L301.4281921386719,38.87096405029297 M303.35113525390625,45.845333099365234 L303.88812255859375,45.67790222167969 L304.79840087890625,45.31175994873047 L305.97265625,44.72639846801758 L307.147216796875,43.96906280517578 L308.1741027832031,43.10444641113281 L308.95098876953125,42.20220184326172 L309.4169006347656,41.31412124633789 L309.5532531738281,40.502925872802734 L309.3546142578125,39.84872055053711 L308.81951904296875,39.44131851196289 L307.98583984375,39.36751174926758 L306.91839599609375,39.697357177734375 L305.7389221191406,40.442955017089844 L304.62237548828125,41.56120300292969 L303.75390625,42.94699478149414 L303.2982177734375,44.459476470947266 L303.3907165527344,45.94245910644531 L304.07537841796875,47.25333786010742 L305.323974609375,48.26685333251953 L307.0653076171875,48.828182220458984 L309.1041259765625,48.85221862792969 L311.20166015625,48.365692138671875 L312.8743591308594,47.70552062988281 L313.8948974609375,47.159141540527344 M314.5728759765625,41.2137565612793 L314.5007629394531,41.41631317138672 L314.3987731933594,41.92396545410156 L314.2665100097656,42.807559967041016 L314.1150817871094,44.00770950317383 L313.9378356933594,45.3563346862793 L313.7589416503906,46.6729850769043 L313.60906982421875,47.78671646118164 L313.519287109375,48.5652961730957 L313.4927673339844,48.91621398925781 L313.5329284667969,48.777469635009766 L313.6528015136719,48.1309700012207 L313.8696594238281,47.03205871582031 L314.1982727050781,45.62604522705078 L314.6299133300781,44.09735870361328 L315.16705322265625,42.62203598022461 L315.8226013183594,41.336612701416016 L316.6015319824219,40.31642150878906 L317.49578857421875,39.59471130371094 L318.4923095703125,39.19715118408203 L319.5646667480469,39.1225471496582 L320.6661682128906,39.30022430419922 L321.7251281738281,39.627227783203125 L322.5401916503906,39.93938446044922 L323.02374267578125,40.14189147949219 M328.9408874511719,32.03270721435547 L329.0026550292969,32.15102005004883 L329.0225830078125,32.49018859863281 L328.91143798828125,33.17536926269531 L328.589111328125,34.27178955078125 L328.08514404296875,35.79773712158203 L327.4557189941406,37.68117904663086 L326.8022155761719,39.800636291503906 L326.25518798828125,42.02241134643555 L325.9053039550781,44.175575256347656 L325.7862548828125,46.07475280761719 L325.8280334472656,47.4423828125 L325.92230224609375,48.204864501953125 M336.0672302246094,42.930294036865234 L336.1212463378906,42.50880432128906 L336.110107421875,41.8596305847168 L335.9252014160156,41.11887741088867 L335.4539794921875,40.52961730957031 L334.6596374511719,40.20346450805664 L333.5837097167969,40.230533599853516 L332.3357849121094,40.64118194580078 L331.0646667480469,41.437923431396484 L329.94183349609375,42.57624435424805 L329.1204833984375,43.942298889160156 L328.70257568359375,45.358062744140625 L328.7505798339844,46.60902404785156 L329.268798828125,47.497169494628906 L330.2236633300781,47.8824462890625 L331.5063171386719,47.72292709350586 L332.9644470214844,47.06236267089844 L334.4043273925781,46.03548049926758 L335.64813232421875,44.79973602294922 L336.5830078125,43.566734313964844 L337.195068359375,42.502811431884766 L337.51287841796875,41.71977615356445 L337.6171875,41.27983474731445 L337.57879638671875,41.22735595703125 L337.4356689453125,41.565887451171875 L337.2229919433594,42.34516906738281 L336.96826171875,43.52800369262695 L336.7229919433594,45.000736236572266 L336.60748291015625,46.553253173828125 L336.7210998535156,47.9323616027832 L337.0951232910156,48.91096496582031 L337.5502014160156,49.44706344604492 L337.9124450683594,49.63373947143555 M342.2716369628906,40.67888641357422 L342.15032958984375,40.954322814941406 L341.9472961425781,41.59257507324219 L341.69488525390625,42.63400650024414 L341.4558410644531,43.961883544921875 L341.270751953125,45.362586975097656 L341.1598815917969,46.61969757080078 L341.1328430175781,47.576847076416016 L341.20062255859375,48.1353759765625 L341.3778381347656,48.23973083496094 L341.6915588378906,47.875465393066406 L342.1791687011719,47.061256408691406 L342.86126708984375,45.8989143371582 L343.7301940917969,44.55524444580078 L344.7589416503906,43.20573806762695 L345.8580627441406,42.00843048095703 L346.9532775878906,41.079349517822266 L347.98089599609375,40.48671340942383 L348.8899230957031,40.28371047973633 L349.6436767578125,40.49214553833008 L350.24871826171875,41.123600006103516 L350.6723937988281,42.15055465698242 L350.91754150390625,43.50300979614258 L351.0075988769531,45.07560729980469 L351.03692626953125,46.731971740722656 L351.107666015625,48.270042419433594 L351.3423156738281,49.547508239746094 L351.6453552246094,50.40453338623047 L351.91094970703125,50.84080123901367 M362.4303894042969,44.82587814331055 L362.3509521484375,44.394718170166016 L362.14361572265625,43.7634162902832 L361.73748779296875,43.070762634277344 L361.09210205078125,42.559139251708984 L360.1890563964844,42.33388137817383 L359.0614929199219,42.46033477783203 L357.79913330078125,42.94847869873047 L356.5363464355469,43.79502868652344 L355.4290771484375,44.906822204589844 L354.64984130859375,46.16984939575195 L354.3193664550781,47.43971252441406 L354.49822998046875,48.53493881225586 L355.17376708984375,49.28631591796875 L356.2779846191406,49.56452178955078 L357.6990051269531,49.27599334716797 L359.3226013183594,48.42837905883789 L361.0104064941406,47.09210205078125 L362.6302185058594,45.36064910888672 L364.0723876953125,43.379276275634766 L365.2695007324219,41.301597595214844 L366.1941833496094,39.289939880371094 L366.8643493652344,37.51601791381836 L367.3147888183594,36.12134552001953 L367.56378173828125,35.199462890625 L367.6253662109375,34.83193588256836 L367.5140686035156,35.0385856628418 L367.2411193847656,35.82693862915039 L366.846435546875,37.17168045043945 L366.3851623535156,38.99758529663086 L365.898681640625,41.18198776245117 L365.42498779296875,43.594730377197266 L365.0227355957031,46.07946014404297 L364.73162841796875,48.443702697753906 L364.5890197753906,50.499549865722656 L364.5625305175781,51.95486068725586 L364.5947570800781,52.74737548828125 " fill="none" stroke="black" stroke-linecap="round" stroke-width="1.2" /><path d="M0,0 M42.23103713989258,74.80587768554688 L42.13105010986328,75.24446105957031 L42.00804138183594,76.14883422851562 L41.883304595947266,77.58158874511719 L41.77168655395508,79.46482849121094 L41.6357421875,81.72738647460938 L41.465782165527344,84.24179077148438 L41.2767219543457,86.85889434814453 L41.1438102722168,89.39183044433594 L41.1140251159668,91.6192398071289 L41.19111633300781,93.35923767089844 L41.30978012084961,94.47129821777344 L41.410335540771484,95.00736999511719 M34.87030792236328,72.66838836669922 L34.97856903076172,72.67359161376953 L35.364288330078125,72.70906829833984 L36.18882369995117,72.79846954345703 L37.526771545410156,72.9385986328125 L39.31618881225586,73.0955810546875 L41.4478874206543,73.23756408691406 L43.76609420776367,73.34098815917969 L46.16516876220703,73.40550994873047 L48.51040267944336,73.45160675048828 L50.64506530761719,73.4879150390625 L52.21869659423828,73.5135726928711 L53.12696838378906,73.5287857055664 M58.2166633605957,84.19576263427734 L58.022953033447266,83.8194808959961 L57.625667572021484,83.26490020751953 L56.956787109375,82.66970825195312 L55.98500061035156,82.28106689453125 L54.69502639770508,82.22325134277344 L53.174530029296875,82.60242462158203 L51.58881759643555,83.43081665039062 L50.18903350830078,84.6982192993164 L49.18621826171875,86.29633331298828 L48.705055236816406,88.07520294189453 L48.791805267333984,89.84603118896484 L49.414554595947266,91.4149398803711 L50.49740219116211,92.58517456054688 L51.943946838378906,93.22250366210938 L53.60258102416992,93.24047088623047 L55.29389190673828,92.63925170898438 L56.83097457885742,91.50794982910156 L58.058265686035156,89.9941635131836 L58.890625,88.29197692871094 L59.30320358276367,86.58419799804688 L59.34845733642578,85.04318237304688 L59.136878967285156,83.77735900878906 L58.8551139831543,82.92231750488281 L58.63806915283203,82.4676513671875 M64.99010467529297,82.39445495605469 L65.01485443115234,82.64949798583984 L65.02330780029297,83.22242736816406 L64.97948455810547,84.17891693115234 L64.86814880371094,85.48595428466797 L64.71550750732422,87.06910705566406 L64.56938171386719,88.78063201904297 L64.48400115966797,90.4284896850586 L64.49637603759766,91.83222198486328 L64.5814208984375,92.81983184814453 L64.69337463378906,93.27596282958984 L64.77423095703125,93.16853332519531 L64.80376434326172,92.49195098876953 L64.80270385742188,91.28572845458984 L64.83455657958984,89.68201446533203 L64.95559692382812,87.8383560180664 L65.21327209472656,85.9194564819336 L65.63745880126953,84.09661102294922 L66.25279998779297,82.4935302734375 L67.02076721191406,81.19416809082031 L67.9355697631836,80.32196807861328 L68.9447021484375,79.9356689453125 L69.9786605834961,80.00353240966797 L70.81470489501953,80.29431915283203 L71.34913635253906,80.59271240234375 M75.10025787353516,82.69768524169922 L75.13934326171875,82.70323944091797 L75.2116470336914,82.86030578613281 L75.302490234375,83.31088256835938 L75.36105346679688,84.15798950195312 L75.32945251464844,85.38693237304688 L75.1829833984375,86.92742156982422 L74.9581298828125,88.64814758300781 L74.7261962890625,90.33409881591797 L74.56719207763672,91.79788970947266 L74.51146697998047,92.87568664550781 L74.54159545898438,93.44493103027344 L74.60980987548828,93.4597396850586 L74.69322967529297,92.8978271484375 L74.79837036132812,91.75888061523438 L74.95472717285156,90.16134643554688 L75.20479583740234,88.29580688476562 L75.58609771728516,86.37049865722656 L76.11439514160156,84.57005310058594 L76.80340576171875,83.01915740966797 L77.67329406738281,81.80635070800781 L78.685302734375,80.9947738647461 L79.7643051147461,80.58079528808594 L80.65335845947266,80.45430755615234 L81.21351623535156,80.46989440917969 M82.56884765625,88.86622619628906 L82.90206146240234,88.96488189697266 L83.56922149658203,88.9694595336914 L84.5798568725586,88.73802947998047 L85.81014251708984,88.14751434326172 L87.11383056640625,87.22879028320312 L88.33515930175781,86.0790023803711 L89.35147094726562,84.8320541381836 L90.05824279785156,83.59943389892578 L90.38410186767578,82.490966796875 L90.29188537597656,81.6100845336914 L89.7700424194336,81.07950592041016 L88.87992095947266,81.01897430419922 L87.74673461914062,81.51679229736328 L86.52793884277344,82.58209991455078 L85.42511749267578,84.13478088378906 L84.63552856445312,86.01696014404297 L84.31285858154297,88.03582763671875 L84.54415893554688,89.97966003417969 L85.30868530273438,91.66533660888672 L86.56464385986328,92.86175537109375 L88.18541717529297,93.41990661621094 L89.98628234863281,93.31578826904297 L91.5003662109375,92.8775863647461 L92.47531127929688,92.42047119140625 M95.68336486816406,82.62947082519531 L95.67796325683594,82.88800048828125 L95.68338775634766,83.5069808959961 L95.69336700439453,84.5718765258789 L95.67760467529297,86.031494140625 L95.60844421386719,87.7405014038086 L95.49960327148438,89.47312927246094 L95.39962005615234,91.00875854492188 L95.3713607788086,92.16780090332031 L95.46102905273438,92.81098937988281 L95.6745376586914,92.8510513305664 L96.02044677734375,92.26240539550781 L96.52068328857422,91.06269073486328 L97.21257781982422,89.3938980102539 L98.11680603027344,87.47734832763672 L99.2320785522461,85.55706024169922 L100.50791931152344,83.85971069335938 L101.85379791259766,82.54988098144531 L103.15660858154297,81.72135925292969 L104.31050872802734,81.44371795654297 L105.22026824951172,81.75180053710938 L105.843994140625,82.63915252685547 L106.16815185546875,84.05058288574219 L106.22169494628906,85.85406494140625 L106.0918197631836,87.8375244140625 L105.9044418334961,89.72186279296875 L105.77278137207031,91.25838470458984 L105.73308563232422,92.25409698486328 L105.75619506835938,92.73381042480469 M113.69425201416016,75.23395538330078 L113.68427276611328,75.56593322753906 L113.63308715820312,76.32869720458984 L113.52495574951172,77.62496948242188 L113.35966491699219,79.4008560180664 L113.16295623779297,81.53849792480469 L112.99394989013672,83.89044189453125 L112.90447235107422,86.27754974365234 L112.94509887695312,88.49752807617188 L113.1337890625,90.35665130615234 L113.43685913085938,91.69734954833984 L113.72948455810547,92.47090911865234 L113.93450164794922,92.79676818847656 M109.3594741821289,83.6252670288086 L109.45773315429688,83.57782745361328 L109.83264923095703,83.5210952758789 L110.64079284667969,83.47246551513672 L112.03014373779297,83.44303894042969 L113.92974090576172,83.4175033569336 L116.11946868896484,83.37403869628906 L117.98653411865234,83.32627868652344 L119.1866455078125,83.28711700439453 M127.72655487060547,82.13874053955078 L127.47062683105469,82.0338134765625 L126.93479919433594,81.93069458007812 L126.09107971191406,81.91768646240234 L125.02983093261719,82.1063232421875 L123.8791732788086,82.52178192138672 L122.82559204101562,83.16465759277344 L122.04624938964844,84.00177764892578 L121.70540618896484,84.98701477050781 L121.88813781738281,86.06927490234375 L122.5969467163086,87.20006561279297 L123.72933197021484,88.31826782226562 L125.1204833984375,89.38250732421875 L126.54350280761719,90.35636138916016 L127.78811645507812,91.20867919921875 L128.67124938964844,91.92472076416016 L129.07620239257812,92.49836730957031 L128.95590209960938,92.93912506103516 L128.33145141601562,93.25804138183594 L127.25692749023438,93.45939636230469 L125.85053253173828,93.51953125 L124.31329345703125,93.43272399902344 L122.86852264404297,93.21878814697266 L121.80941009521484,92.98566436767578 L121.22570037841797,92.81110382080078 M141.1123809814453,82.15879821777344 L141.09022521972656,82.41564178466797 L141.05873107910156,83.00748443603516 L141.01675415039062,84.01306915283203 L140.9542694091797,85.38629913330078 L140.852783203125,87.02408599853516 L140.70516967773438,88.77029418945312 L140.5159454345703,90.43138885498047 L140.32379150390625,91.8521728515625 L140.16665649414062,92.89288330078125 L140.071044921875,93.44767761230469 L140.0443572998047,93.46221160888672 L140.09512329101562,92.92766571044922 L140.22708129882812,91.86115264892578 L140.4777069091797,90.3816909790039 L140.88333129882812,88.6303939819336 L141.49130249023438,86.78577423095703 L142.29039001464844,85.02002716064453 L143.2451934814453,83.5085678100586 L144.27195739746094,82.37464141845703 L145.30348205566406,81.7303695678711 L146.28512573242188,81.61500549316406 L147.21168518066406,82.03675842285156 L148.03231811523438,82.94139862060547 L148.6874542236328,84.26668548583984 L149.08729553222656,85.87593841552734 L149.19058227539062,87.60308837890625 L149.03932189941406,89.24473571777344 L148.7556610107422,90.63577270507812 L148.46511840820312,91.6233901977539 L148.26426696777344,92.1061019897461 L148.1845703125,92.00128173828125 L148.23011779785156,91.28119659423828 L148.43299865722656,89.97673797607422 L148.834716796875,88.25060272216797 L149.47247314453125,86.31175231933594 L150.34674072265625,84.39286041259766 L151.39280700683594,82.70036315917969 L152.5034942626953,81.37982177734375 L153.59823608398438,80.51659393310547 L154.60653686523438,80.19182586669922 L155.48289489746094,80.43242645263672 L156.19692993164062,81.24236297607422 L156.6953125,82.56261444091797 L156.9373016357422,84.30369567871094 L156.94871520996094,86.27230072021484 L156.79702758789062,88.24668884277344 L156.6097412109375,89.7872085571289 L156.47842407226562,90.71288299560547 M167.32028198242188,83.44276428222656 L167.1685791015625,83.10423278808594 L166.84239196777344,82.62693786621094 L166.2983856201172,82.16490173339844 L165.5377197265625,81.9553451538086 L164.5815887451172,82.1266098022461 L163.48175048828125,82.7310562133789 L162.34634399414062,83.7623519897461 L161.3172607421875,85.16913604736328 L160.5508270263672,86.82877349853516 L160.17750549316406,88.57457733154297 L160.2736358642578,90.21399688720703 L160.84548950195312,91.54913330078125 L161.8360595703125,92.44017028808594 L163.13409423828125,92.79492950439453 L164.60305786132812,92.57929229736328 L166.08432006835938,91.82697296142578 L167.41969299316406,90.62065124511719 L168.47882080078125,89.0969009399414 L169.1741943359375,87.42899322509766 L169.4493865966797,85.77752685546875 L169.3307647705078,84.29248046875 L168.9347686767578,83.09542846679688 L168.4061279296875,82.24818420410156 L167.9415283203125,81.79061889648438 L167.69970703125,81.69316101074219 L167.69754028320312,81.85710906982422 L167.8259735107422,82.10432434082031 L167.97740173339844,82.30802154541016 M174.1924591064453,81.8877182006836 L174.10104370117188,81.81534576416016 L173.93545532226562,81.85130310058594 L173.695068359375,82.16837310791016 L173.40966796875,82.92491912841797 L173.08570861816406,84.13682556152344 L172.78253173828125,85.71863555908203 L172.5599822998047,87.4801025390625 L172.4872589111328,89.19758605957031 L172.6195831298828,90.66284942626953 L172.9916229248047,91.71248626708984 L173.5855712890625,92.24652862548828 L174.38980102539062,92.22552490234375 L175.36758422851562,91.65670776367188 L176.45660400390625,90.59626007080078 L177.57168579101562,89.16785430908203 L178.6173553466797,87.53633117675781 L179.49501037597656,85.91049194335938 L180.1502685546875,84.47756958007812 L180.58839416503906,83.3734130859375 L180.8353271484375,82.68069458007812 L180.9288330078125,82.46553802490234 L180.89425659179688,82.75667572021484 L180.7406463623047,83.59239196777344 L180.47987365722656,84.94612884521484 L180.1532745361328,86.6838150024414 L179.82647705078125,88.60215759277344 L179.58462524414062,90.47615814208984 L179.53768920898438,92.04972076416016 L179.73916625976562,93.15384674072266 L180.1791229248047,93.7193832397461 L180.65570068359375,93.8719711303711 L181.0143585205078,93.81099700927734 M185.72982788085938,83.71919250488281 L185.75961303710938,83.71560668945312 L185.7926483154297,83.89993286132812 L185.7965087890625,84.4273910522461 L185.7286376953125,85.4007797241211 L185.57545471191406,86.76048278808594 L185.37295532226562,88.35889434814453 L185.1586456298828,89.96022033691406 L184.986328125,91.34973907470703 L184.87542724609375,92.35789489746094 L184.80906677246094,92.86940002441406 L184.76846313476562,92.83522033691406 L184.77621459960938,92.25479888916016 L184.83990478515625,91.13450622558594 L184.98597717285156,89.58811950683594 L185.2340545654297,87.80491638183594 L185.5821533203125,85.98616027832031 L186.03329467773438,84.3266372680664 L186.6219024658203,82.96337890625 L187.3507843017578,81.92713928222656 L188.25633239746094,81.27529907226562 L189.3240509033203,81.01847839355469 L190.48353576660156,81.11143493652344 L191.45228576660156,81.36273193359375 L192.0784149169922,81.60968017578125 M195.15977478027344,81.010986328125 L195.18560791015625,81.14710998535156 L195.19863891601562,81.52714538574219 L195.16578674316406,82.25718688964844 L195.03993225097656,83.3764419555664 L194.80233764648438,84.83197784423828 L194.46536254882812,86.53333282470703 L194.07644653320312,88.32020568847656 L193.7069091796875,89.99113464355469 L193.426513671875,91.36431884765625 L193.26901245117188,92.31133270263672 L193.23245239257812,92.7537841796875 L193.29998779296875,92.67150115966797 L193.4776611328125,92.067626953125 L193.7948455810547,90.96121978759766 L194.2895965576172,89.45319366455078 L194.99215698242188,87.7146224975586 L195.90399169921875,85.9526138305664 L196.9855499267578,84.34827423095703 L198.18344116210938,83.06090545654297 L199.4236297607422,82.18359375 L200.61065673828125,81.7887954711914 L201.66160583496094,81.91735076904297 L202.51370239257812,82.58154296875 L203.1114959716797,83.71430206298828 L203.4385223388672,85.22499084472656 L203.51177978515625,86.9697494506836 L203.37771606445312,88.80168914794922 L203.1598358154297,90.56370544433594 L202.99212646484375,92.09721374511719 L202.9686737060547,93.25247192382812 L203.05393981933594,93.95616149902344 L203.17152404785156,94.26526641845703 M216.3890380859375,74.97061157226562 L216.4300537109375,75.11951446533203 L216.46249389648438,75.5089111328125 L216.46426391601562,76.2440414428711 L216.39743041992188,77.36477661132812 L216.2535400390625,78.8583984375 L216.01461791992188,80.67050170898438 L215.70335388183594,82.72260284423828 L215.35362243652344,84.91410827636719 L215.0345001220703,87.12235260009766 L214.80223083496094,89.19587707519531 L214.68289184570312,90.99759674072266 L214.64781188964844,92.34773254394531 L214.6725616455078,93.13260650634766 L214.7223358154297,93.34263610839844 L214.76727294921875,93.20414733886719 L214.7982940673828,92.95980834960938 M211.63722229003906,83.28089141845703 L211.90313720703125,83.30934143066406 L212.54776000976562,83.38595581054688 L213.645263671875,83.50198364257812 L215.18763732910156,83.58712768554688 L217.01771545410156,83.5528564453125 L218.92568969726562,83.35397338867188 L220.45376586914062,83.08833312988281 L221.39840698242188,82.8652572631836 M224.08795166015625,74.89054870605469 L224.095458984375,75.16397094726562 L224.09661865234375,75.77700805664062 L224.065185546875,76.80841064453125 L223.9643096923828,78.23179626464844 L223.7799530029297,80.00791931152344 L223.50929260253906,82.04124450683594 L223.16917419433594,84.21407318115234 L222.82261657714844,86.35918426513672 L222.53271484375,88.28311920166016 L222.34317016601562,89.79515075683594 L222.2930908203125,90.76535034179688 L222.3961944580078,91.11679077148438 L222.63743591308594,90.84980773925781 L223.03921508789062,90.01185607910156 L223.5990447998047,88.72508239746094 L224.29795837402344,87.17057037353516 L225.1022186279297,85.54673767089844 L225.9856414794922,84.03394317626953 L226.897705078125,82.7680435180664 L227.8275909423828,81.84697723388672 L228.73216247558594,81.34666442871094 L229.578369140625,81.32574462890625 L230.31288146972656,81.80029296875 L230.89784240722656,82.74397277832031 L231.28384399414062,84.06271362304688 L231.47360229492188,85.62510681152344 L231.4874725341797,87.27961730957031 L231.42665100097656,88.83908081054688 L231.39198303222656,90.11912536621094 L231.45877075195312,91.00077819824219 L231.58343505859375,91.47140502929688 L231.70797729492188,91.63274383544922 M234.42840576171875,88.34740447998047 L234.77005004882812,88.16350555419922 L235.42886352539062,87.77068328857422 L236.37672424316406,87.12818908691406 L237.45816040039062,86.26119995117188 L238.54397583007812,85.22953033447266 L239.51011657714844,84.11246490478516 L240.25860595703125,83.00157165527344 L240.72854614257812,81.9901123046875 L240.83984375,81.14273071289062 L240.56167602539062,80.53143310546875 L239.9163818359375,80.25029754638672 L238.9701385498047,80.38248443603516 L237.83082580566406,80.98446655273438 L236.67347717285156,82.06114959716797 L235.6685333251953,83.5252456665039 L235.01844787597656,85.250732421875 L234.869384765625,87.08940887451172 L235.29925537109375,88.88143157958984 L236.2830047607422,90.47583770751953 L237.82293701171875,91.69671630859375 L239.81402587890625,92.4194107055664 L242.0828857421875,92.6110610961914 L244.02517700195312,92.47932434082031 L245.2977752685547,92.25186920166016 M256.1043701171875,82.48121643066406 L256.0735168457031,82.62472534179688 L255.9966278076172,83.03618621826172 L255.85923767089844,83.82315826416016 L255.67103576660156,84.9823989868164 L255.47242736816406,86.40573120117188 L255.33534240722656,87.93209838867188 L255.32540893554688,89.37745666503906 L255.5143280029297,90.58638763427734 L255.9237060546875,91.42315673828125 L256.548828125,91.77223205566406 L257.353271484375,91.5716552734375 L258.2977294921875,90.83055877685547 L259.3000183105469,89.6477279663086 L260.2797546386719,88.19354248046875 L261.1361083984375,86.67704010009766 L261.803466796875,85.29552459716797 L262.24920654296875,84.18281555175781 L262.4989929199219,83.41976928710938 L262.5965270996094,83.06437683105469 L262.6046142578125,83.14204406738281 L262.57843017578125,83.67940521240234 L262.5671691894531,84.65249633789062 L262.6250915527344,85.95008087158203 L262.8116760253906,87.40217590332031 L263.1692810058594,88.82405853271484 L263.7176818847656,90.0394287109375 L264.4451599121094,90.91461181640625 L265.3055419921875,91.35948944091797 L266.2619934082031,91.3197250366211 L267.2589111328125,90.78675842285156 L268.21240234375,89.82343292236328 L269.0093994140625,88.4974136352539 L269.5555725097656,86.9429702758789 L269.8116149902344,85.34075164794922 L269.8617858886719,84.06009674072266 L269.8185119628906,83.27286529541016 M274.3233337402344,81.99335479736328 L274.2964782714844,82.31593322753906 L274.22760009765625,82.94998931884766 L274.09454345703125,83.90837097167969 L273.89752197265625,85.11101531982422 L273.6586608886719,86.49852752685547 L273.43310546875,87.98127746582031 L273.273193359375,89.452880859375 L273.22320556640625,90.72958374023438 L273.27099609375,91.61211395263672 L273.37335205078125,91.98626708984375 L273.46759033203125,91.98839569091797 L273.52490234375,91.82481384277344 M275.30364990234375,75.8064193725586 L275.36529541015625,75.65706634521484 L275.47515869140625,75.49742126464844 L275.59320068359375,75.37650299072266 L275.6792907714844,75.34329986572266 M280.3556823730469,81.16106414794922 L280.3501281738281,81.56908416748047 L280.3078308105469,82.37471008300781 L280.17657470703125,83.59751892089844 L279.9122619628906,85.11690521240234 L279.53369140625,86.80926513671875 L279.1225280761719,88.51382446289062 L278.7867126464844,90.07020568847656 L278.6102294921875,91.3218002319336 L278.60430908203125,92.13729095458984 L278.72528076171875,92.42538452148438 L278.95123291015625,92.14071655273438 L279.3019714355469,91.2921371459961 L279.81414794921875,89.96650695800781 L280.5035095214844,88.3180923461914 L281.3697814941406,86.52359008789062 L282.38043212890625,84.7627944946289 L283.5122985839844,83.19013977050781 L284.7251892089844,81.92208099365234 L285.95867919921875,81.07272338867188 L287.1263427734375,80.71612548828125 L288.1529846191406,80.88581848144531 L288.97637939453125,81.57546997070312 L289.55780029296875,82.7337417602539 L289.85467529296875,84.25691986083984 L289.8641357421875,86.0132827758789 L289.63067626953125,87.83732604980469 L289.24737548828125,89.57369232177734 L288.8899230957031,91.03627014160156 L288.708251953125,92.07742309570312 L288.7804870605469,92.62324523925781 L288.9945983886719,92.78292083740234 L289.2176208496094,92.73410034179688 M298.9422607421875,85.44535827636719 L298.90625,85.09306335449219 L298.7736511230469,84.51287841796875 L298.475830078125,83.80259704589844 L297.9649658203125,83.15235137939453 L297.242431640625,82.66139221191406 L296.3426513671875,82.40666198730469 L295.3345642089844,82.45233154296875 L294.3074951171875,82.85076904296875 L293.35357666015625,83.6395034790039 L292.57122802734375,84.7945556640625 L292.0556335449219,86.2079849243164 L291.8691101074219,87.70574951171875 L292.05999755859375,89.1098403930664 L292.63201904296875,90.22783660888672 L293.5606689453125,90.89054107666016 L294.7840881347656,90.9660873413086 L296.20867919921875,90.38909912109375 L297.7058410644531,89.17507934570312 L299.1709289550781,87.43531036376953 L300.5129089355469,85.3238525390625 L301.69964599609375,82.99483489990234 L302.7091979980469,80.59000396728516 L303.5367736816406,78.28982543945312 L304.159912109375,76.2847671508789 L304.5847473144531,74.73200225830078 L304.8221130371094,73.75093841552734 L304.9214782714844,73.37967681884766 L304.9104309082031,73.60916137695312 L304.8055419921875,74.47036743164062 L304.5942687988281,75.96050262451172 L304.2928466796875,77.99458312988281 L303.9299621582031,80.43141174316406 L303.58050537109375,83.06917572021484 L303.3153991699219,85.68506622314453 L303.1825866699219,88.12425994873047 L303.1896057128906,90.21699523925781 L303.30841064453125,91.81736755371094 L303.4876708984375,92.85258483886719 L303.65216064453125,93.3753890991211 L303.7598571777344,93.53771209716797 M310.0031433105469,70.0 L310.02239990234375,70.17109680175781 L310.04632568359375,70.61503601074219 L310.06683349609375,71.15948486328125 L310.0758361816406,71.63213348388672 M318.1408386230469,82.86695861816406 L317.9477233886719,82.46268463134766 L317.5274658203125,81.81377410888672 L316.8359680175781,81.04010772705078 L315.9183044433594,80.37521362304688 L314.8590087890625,79.94833374023438 L313.7737121582031,79.8429946899414 L312.783203125,80.0771255493164 L312.0164489746094,80.637451171875 L311.5840148925781,81.48158264160156 L311.5769348144531,82.54566192626953 L312.025146484375,83.7647933959961 L312.8878173828125,85.0682144165039 L314.0455627441406,86.38129425048828 L315.33837890625,87.6362533569336 L316.5838928222656,88.76972961425781 L317.6263427734375,89.73040771484375 L318.32171630859375,90.50663757324219 L318.58087158203125,91.09835815429688 L318.3720397949219,91.52278900146484 L317.7108154296875,91.81603240966797 L316.6546325683594,92.01195526123047 L315.31243896484375,92.14189910888672 L313.808837890625,92.23974609375 L312.3243103027344,92.28520965576172 L311.0651550292969,92.25004577636719 L310.1882629394531,92.12010192871094 L309.72027587890625,91.95637512207031 L309.56451416015625,91.81851196289062 M332.0715637207031,81.96027374267578 L332.0599365234375,82.30271911621094 L332.0276184082031,82.99483489990234 L331.96234130859375,84.07565307617188 L331.8414001464844,85.45955657958984 L331.657958984375,87.07070922851562 L331.3884582519531,88.7884750366211 L331.0552978515625,90.50574493408203 L330.71710205078125,92.04573822021484 L330.4527587890625,93.23664855957031 L330.3164978027344,93.94798278808594 L330.2976989746094,94.24016571044922 L330.3311767578125,94.26251983642578 M333.1421813964844,74.73472595214844 L333.1458435058594,74.78514099121094 L333.1955871582031,74.92163848876953 L333.2695617675781,75.09098052978516 L333.3458251953125,75.23989868164062 M337.74700927734375,80.6739273071289 L337.7279357910156,81.02033996582031 L337.67572021484375,81.73741912841797 L337.5721435546875,82.86723327636719 L337.39654541015625,84.31605529785156 L337.12982177734375,85.97632598876953 L336.7953796386719,87.72137451171875 L336.44281005859375,89.39408874511719 L336.1213073730469,90.83649444580078 L335.896728515625,91.91726684570312 L335.79949951171875,92.52189636230469 L335.83795166015625,92.59534454345703 L336.0109558105469,92.13971710205078 L336.3177490234375,91.19268798828125 L336.7543029785156,89.86040496826172 L337.3332824707031,88.29461669921875 L338.06390380859375,86.6511001586914 L338.9452819824219,85.07856750488281 L339.94830322265625,83.7183609008789 L341.0101013183594,82.68012237548828 L342.0581359863281,82.05379486083984 L343.017822265625,81.88690185546875 L343.835205078125,82.20048522949219 L344.47247314453125,82.98333740234375 L344.90234375,84.19878387451172 L345.0942687988281,85.7567138671875 L345.0699768066406,87.5265121459961 L344.8902587890625,89.34100341796875 L344.6658630371094,90.97623443603516 L344.511474609375,92.21961212158203 L344.4972839355469,92.92889404296875 L344.572021484375,93.18116760253906 L344.66937255859375,93.16263580322266 M352.8980407714844,74.44268035888672 L352.950439453125,74.64037322998047 L352.9927673339844,75.18925476074219 L352.969970703125,76.21448516845703 L352.83843994140625,77.72942352294922 L352.59625244140625,79.63941955566406 L352.27435302734375,81.82263946533203 L351.9120178222656,84.13043212890625 L351.55828857421875,86.41158294677734 L351.2565612792969,88.4762954711914 L351.0523376464844,90.15674591064453 L350.9477844238281,91.26885986328125 L350.9186706542969,91.83424377441406 M348.85650634765625,85.95637512207031 L348.9548034667969,85.98372650146484 L349.366455078125,86.0687484741211 L350.26336669921875,86.21057891845703 L351.69891357421875,86.3586196899414 L353.5473937988281,86.43247985839844 L355.64404296875,86.37679290771484 L357.7972717285156,86.15350341796875 L359.84710693359375,85.75150299072266 L361.66461181640625,85.17115020751953 L363.1238708496094,84.42279052734375 L364.1363525390625,83.5556869506836 L364.6528015136719,82.65764617919922 L364.649658203125,81.8424301147461 L364.1315612792969,81.22191619873047 L363.15283203125,80.9090805053711 L361.83184814453125,81.0058822631836 L360.3671875,81.57417297363281 L358.9581604003906,82.6114730834961 L357.8148498535156,84.06470489501953 L357.105224609375,85.80450439453125 L356.95538330078125,87.66515350341797 L357.441162109375,89.46171569824219 L358.54827880859375,91.02155303955078 L360.21331787109375,92.1032485961914 L362.2587585449219,92.55504608154297 L364.4404296875,92.33766174316406 L366.21905517578125,91.79644775390625 L367.33123779296875,91.26360321044922 M372.0373840332031,73.47435760498047 L372.0317077636719,73.20006561279297 L372.0015563964844,73.00547790527344 L371.9141540527344,73.14533233642578 L371.7282409667969,73.89546203613281 L371.4156494140625,75.28521728515625 L370.9682922363281,77.24523162841797 L370.40460205078125,79.61163330078125 L369.80450439453125,82.23827362060547 L369.25738525390625,84.92228698730469 L368.8630676269531,87.46868133544922 L368.694091796875,89.685302734375 L368.8244323730469,91.34092712402344 L369.2608337402344,92.26679992675781 L369.9609680175781,92.42980194091797 L370.6524963378906,92.14490509033203 L371.15142822265625,91.7523193359375 M377.2359924316406,74.643798828125 L377.16949462890625,74.80557250976562 L376.9942321777344,75.30609893798828 L376.69207763671875,76.29083251953125 L376.288330078125,77.79199981689453 L375.8488464355469,79.71971893310547 L375.43621826171875,81.90750122070312 L375.0982360839844,84.171142578125 L374.8742980957031,86.35453033447266 L374.7961120605469,88.27910614013672 L374.8684387207031,89.80219268798828 L375.01141357421875,90.79052734375 L375.14593505859375,91.2778091430664 M381.3140563964844,82.29804229736328 L381.3303527832031,82.36434173583984 L381.3328552246094,82.62470245361328 L381.28802490234375,83.19927978515625 L381.172119140625,84.13316345214844 L381.0072937011719,85.37615966796875 L380.82696533203125,86.7916488647461 L380.687255859375,88.23513793945312 L380.6434326171875,89.52360534667969 L380.7068176269531,90.51129150390625 L380.863525390625,91.098876953125 L381.0364685058594,91.3423080444336 L381.164794921875,91.3655776977539 M383.92767333984375,77.01146697998047 L383.9708557128906,76.88922882080078 L384.0306091308594,76.76993560791016 L384.0864562988281,76.68856811523438 L384.117919921875,76.68011474609375 M392.7858581542969,84.3008041381836 L392.67376708984375,83.99071502685547 L392.3974609375,83.51457977294922 L391.87835693359375,82.99166870117188 L391.0969543457031,82.61344146728516 L390.07318115234375,82.4918212890625 L388.90869140625,82.69469451904297 L387.7564392089844,83.24536895751953 L386.7892150878906,84.10627746582031 L386.157958984375,85.20506286621094 L385.969970703125,86.38932800292969 L386.2432861328125,87.49872589111328 L386.94647216796875,88.38215637207031 L387.997314453125,88.93277740478516 L389.2946472167969,89.08296966552734 L390.7232971191406,88.83922576904297 L392.1528625488281,88.23323822021484 L393.4393005371094,87.34749603271484 L394.45989990234375,86.31724548339844 L395.1549377441406,85.28938293457031 L395.5273132324219,84.38545989990234 L395.6286926269531,83.71825408935547 L395.5416564941406,83.38292694091797 L395.3438415527344,83.4341812133789 L395.0997314453125,83.9316635131836 L394.8857421875,84.8912124633789 L394.7368469238281,86.2494125366211 L394.6670227050781,87.92512512207031 L394.642578125,89.83161926269531 L394.5966491699219,91.85427856445312 L394.4559326171875,93.89486694335938 L394.17169189453125,95.84134674072266 L393.7226867675781,97.55540466308594 L393.1201477050781,98.92942810058594 L392.389892578125,99.88290405273438 L391.5758056640625,100.39483642578125 L390.7518615722656,100.41046905517578 L390.0115661621094,99.94135284423828 L389.4595031738281,99.06242370605469 L389.135986328125,98.15098571777344 L389.0079345703125,97.4743881225586 M399.7284240722656,87.60887145996094 L400.0291442871094,87.3882064819336 L400.5836486816406,86.95671844482422 L401.3617858886719,86.32429504394531 L402.2235107421875,85.55644989013672 L403.0505065917969,84.69552612304688 L403.73828125,83.79226684570312 L404.20355224609375,82.89251708984375 L404.396240234375,82.05621337890625 L404.2794494628906,81.38243103027344 L403.8304443359375,80.95352172851562 L403.0569152832031,80.84049224853516 L402.0340270996094,81.10283660888672 L400.8919982910156,81.76470184326172 L399.7989196777344,82.8030014038086 L398.92218017578125,84.14375305175781 L398.4023742675781,85.66659545898438 L398.3269348144531,87.22936248779297 L398.72235107421875,88.69377136230469 L399.56036376953125,89.94355773925781 L400.8122863769531,90.83074188232422 L402.3662109375,91.24811553955078 L404.0727844238281,91.18309783935547 L405.501953125,90.86956024169922 L406.4149475097656,90.53779602050781 M409.5049743652344,82.0134048461914 L409.4908142089844,82.17286682128906 L409.4652099609375,82.63240814208984 L409.4175720214844,83.50414276123047 L409.32403564453125,84.7673110961914 L409.1601867675781,86.27178192138672 L408.95770263671875,87.80691528320312 L408.7794494628906,89.17161560058594 L408.68438720703125,90.20714569091797 L408.71624755859375,90.81658935546875 L408.873291015625,90.94283294677734 L409.1291809082031,90.58476257324219 L409.4828796386719,89.76638793945312 L409.944580078125,88.58439636230469 L410.5444030761719,87.1596450805664 L411.3045959472656,85.63327026367188 L412.2314453125,84.14893341064453 L413.28985595703125,82.84306335449219 L414.4308776855469,81.82251739501953 L415.5816345214844,81.18443298339844 L416.6766357421875,80.98641967773438 L417.63311767578125,81.25247192382812 L418.3893737792969,81.97196960449219 L418.8804626464844,83.09513854980469 L419.07745361328125,84.5552978515625 L419.014404296875,86.19389343261719 L418.7880859375,87.81373596191406 L418.54168701171875,89.06361389160156 L418.37652587890625,89.80020141601562 M428.5376281738281,82.76742553710938 L428.454833984375,82.42597961425781 L428.22955322265625,81.9498291015625 L427.79052734375,81.48717498779297 L427.10089111328125,81.25640106201172 L426.17138671875,81.34597778320312 L425.0426330566406,81.800048828125 L423.8090515136719,82.60420227050781 L422.6184997558594,83.72882843017578 L421.6419372558594,85.09827423095703 L421.06072998046875,86.59883117675781 L421.0025634765625,88.0993423461914 L421.59613037109375,89.4388427734375 L422.8218688964844,90.47772216796875 L424.5338134765625,91.13243865966797 L426.1374816894531,91.43915557861328 L427.248291015625,91.51476287841797 M431.41961669921875,86.99666595458984 L431.6949768066406,87.02787780761719 L432.292236328125,86.98920440673828 L433.2630920410156,86.80626678466797 L434.5233459472656,86.4192123413086 L435.9292907714844,85.83924102783203 L437.3158264160156,85.09404754638672 L438.5423278808594,84.23514556884766 L439.4781494140625,83.31529235839844 L440.0416259765625,82.39029693603516 L440.1763000488281,81.5378189086914 L439.84033203125,80.84130096435547 L439.0366516113281,80.40910339355469 L437.827392578125,80.34581756591797 L436.3204345703125,80.71878814697266 L434.6956787109375,81.5367202758789 L433.19036865234375,82.76594543457031 L432.03900146484375,84.30943298339844 L431.4384765625,86.06128692626953 L431.5223388671875,87.87979125976562 L432.4591979980469,89.6010971069336 L434.2332763671875,91.06539916992188 L436.6632080078125,92.1609878540039 L438.9352111816406,92.82260131835938 L440.5037536621094,93.1241455078125 " fill="none" stroke="black" stroke-linecap="round" stroke-width="1.2" /><path d="M0,0 M35.842803955078125,111.10045623779297 L35.83780288696289,111.57777404785156 L35.82818603515625,112.55859375 L35.79436492919922,114.08734893798828 L35.719703674316406,116.07893371582031 L35.56916046142578,118.42910766601562 L35.333251953125,121.01106262207031 L35.018455505371094,123.66290283203125 L34.740821838378906,126.21080017089844 L34.60075378417969,128.4160614013672 L34.678131103515625,130.11326599121094 L34.87088394165039,131.16824340820312 L35.069854736328125,131.66189575195312 M44.26295471191406,113.19944763183594 L44.22445297241211,113.46903991699219 L44.13994598388672,114.141357421875 L44.01466369628906,115.33990478515625 L43.860511779785156,117.04459381103516 L43.69424819946289,119.1567153930664 L43.53783416748047,121.52657318115234 L43.37474822998047,123.96287536621094 L43.23088073730469,126.2596435546875 L43.1324577331543,128.19471740722656 L43.08218002319336,129.58212280273438 L43.06945037841797,130.37252807617188 L43.080833435058594,130.6916961669922 M38.28948211669922,122.51541137695312 L38.369415283203125,122.53334045410156 L38.690711975097656,122.57784271240234 L39.392852783203125,122.65522766113281 L40.62328338623047,122.7422866821289 L42.341468811035156,122.80928802490234 L44.3872184753418,122.82939147949219 L46.165916442871094,122.80823516845703 L47.33750534057617,122.77322387695312 M56.0980110168457,122.1134033203125 L55.827789306640625,121.95746612548828 L55.3166618347168,121.8133773803711 L54.524166107177734,121.83070373535156 L53.50498962402344,122.20674896240234 L52.33918762207031,123.03569793701172 L51.19664764404297,124.29446411132812 L50.28849792480469,125.83476257324219 L49.866722106933594,127.45114135742188 L50.06092834472656,128.8817901611328 L50.906715393066406,129.9097137451172 L52.318702697753906,130.3921661376953 L54.114410400390625,130.26348876953125 L56.03371810913086,129.55868530273438 L57.81929016113281,128.4073028564453 L59.2036247253418,126.98777770996094 L60.01551818847656,125.49354553222656 L60.19821548461914,124.099609375 L59.81478500366211,122.92462158203125 L58.99961471557617,122.05188751220703 L57.9658088684082,121.54449462890625 L56.935462951660156,121.41506958007812 L56.10531997680664,121.5964126586914 L55.59060287475586,121.892822265625 L55.37042999267578,122.14217376708984 M67.69294738769531,115.12934875488281 L67.63410949707031,115.51936340332031 L67.50863647460938,116.3682632446289 L67.31326293945312,117.75276947021484 L67.06549835205078,119.59242248535156 L66.796630859375,121.77189636230469 L66.56116485595703,124.12482452392578 L66.42276000976562,126.47985076904297 L66.42842864990234,128.62265014648438 L66.58863830566406,130.3463134765625 L66.85298156738281,131.50941467285156 L67.10396575927734,132.1226806640625 L67.27217864990234,132.3355255126953 M63.0539436340332,123.25642395019531 L63.51870346069336,123.23046875 L64.49029541015625,123.18792724609375 L65.60371398925781,123.14405822753906 L66.49394226074219,123.1141128540039 M86.42388153076172,115.5569076538086 L86.44918060302734,115.9000244140625 L86.50253295898438,116.62582397460938 L86.56668090820312,117.78486633300781 L86.59088897705078,119.30564880371094 L86.52149963378906,121.09901428222656 L86.34410858154297,123.04956817626953 L86.08883666992188,124.99067687988281 L85.84317016601562,126.74146270751953 L85.67264556884766,128.12905883789062 L85.61060333251953,129.02484130859375 L85.66422271728516,129.3727264404297 L85.83338928222656,129.1846466064453 L86.1311264038086,128.48654174804688 L86.60320281982422,127.36759185791016 L87.27994537353516,125.98872375488281 L88.17388153076172,124.53755950927734 L89.26686096191406,123.19414520263672 L90.50342559814453,122.11750793457031 L91.81317138671875,121.40299987792969 L93.13153839111328,121.1239242553711 L94.39128875732422,121.33453369140625 L95.4998550415039,122.04183959960938 L96.35334777832031,123.17884826660156 L96.84712982177734,124.62696838378906 L96.91715240478516,126.20295715332031 L96.55809020996094,127.71514129638672 L95.79644012451172,128.98590087890625 L94.67927551269531,129.8966827392578 L93.26013946533203,130.36386108398438 L91.6474380493164,130.3893280029297 L89.98865509033203,130.0388641357422 L88.49710083007812,129.3717498779297 L87.36392974853516,128.4861297607422 L86.7055435180664,127.49703216552734 L86.44207763671875,126.65635681152344 L86.42327117919922,126.1097640991211 M100.88755798339844,116.27615356445312 L100.92945098876953,116.42555236816406 L100.96730041503906,116.8515396118164 L100.96197509765625,117.68694305419922 L100.8797378540039,118.98958587646484 L100.72217559814453,120.72317504882812 L100.54430389404297,122.7724380493164 L100.41820526123047,124.95128631591797 L100.45256805419922,127.02902221679688 L100.71634674072266,128.7731170654297 L101.21260070800781,130.02247619628906 L101.7336654663086,130.73257446289062 L102.12564849853516,131.01962280273438 M111.88442993164062,123.13435363769531 L111.70897674560547,122.73723602294922 L111.3219985961914,122.18487548828125 L110.66461181640625,121.64834594726562 L109.75316619873047,121.40596008300781 L108.63490295410156,121.5787353515625 L107.41531372070312,122.23932647705078 L106.24181365966797,123.36007690429688 L105.30628204345703,124.84555053710938 L104.78143310546875,126.50920867919922 L104.79591369628906,128.1333465576172 L105.38275909423828,129.48312377929688 L106.4856185913086,130.36497497558594 L107.96708679199219,130.66246032714844 L109.6424560546875,130.34068298339844 L111.30599212646484,129.47303771972656 L112.75125885009766,128.21151733398438 L113.81897735595703,126.74309539794922 L114.39303588867188,125.23858642578125 L114.45307159423828,123.84648895263672 L114.06898498535156,122.68270874023438 L113.39714050292969,121.83800506591797 L112.62248229980469,121.34675598144531 L111.99919128417969,121.1463623046875 L111.6240234375,121.11883544921875 M118.65213012695312,121.59249114990234 L118.63151550292969,121.75538635253906 L118.57225036621094,122.20262908935547 L118.44866943359375,123.03755187988281 L118.26280212402344,124.2723388671875 L118.04469299316406,125.80436706542969 L117.89608001708984,127.46572875976562 L117.89616394042969,129.03424072265625 L118.10626983642578,130.30514526367188 L118.53482055664062,131.09890747070312 L119.15540313720703,131.301513671875 L119.92684936523438,130.87939453125 L120.81509399414062,129.8811798095703 L121.73332214355469,128.44900512695312 L122.58576965332031,126.8157958984375 L123.27464294433594,125.228515625 L123.73638153076172,123.88583374023438 L123.97644805908203,122.91346740722656 L124.05437469482422,122.36531829833984 L124.05010986328125,122.27637481689453 L124.037841796875,122.68072509765625 L124.08170318603516,123.591552734375 L124.23712921142578,124.93072509765625 L124.54232788085938,126.50080871582031 L125.02590942382812,128.0533447265625 L125.69537353515625,129.33206176757812 L126.532958984375,130.13729858398438 L127.51420593261719,130.36380004882812 L128.607666015625,129.97329711914062 L129.7420654296875,128.98976135253906 L130.815673828125,127.55125427246094 L131.69818115234375,125.8666000366211 L132.27980041503906,124.18067932128906 L132.52890014648438,122.71923065185547 L132.5081787109375,121.61604309082031 L132.37045288085938,120.93610382080078 L132.240966796875,120.61771392822266 M136.41720581054688,120.10244750976562 L136.43984985351562,120.35521697998047 L136.45318603515625,120.9603042602539 L136.42276000976562,121.99276733398438 L136.33822631835938,123.38082122802734 L136.23684692382812,124.951904296875 L136.18096923828125,126.49921417236328 L136.21347045898438,127.82551574707031 L136.35498046875,128.78318786621094 L136.59457397460938,129.26199340820312 L136.92762756347656,129.1781768798828 L137.37472534179688,128.50933837890625 L137.96182250976562,127.32178497314453 L138.68545532226562,125.78131103515625 L139.5354461669922,124.11531829833984 L140.49346923828125,122.54217529296875 L141.52215576171875,121.21968078613281 L142.5822296142578,120.25831604003906 L143.6371307373047,119.74472045898438 L144.6105194091797,119.74153137207031 L145.4605712890625,120.28575134277344 L146.141357421875,121.34573364257812 L146.6212615966797,122.82938385009766 L146.88336181640625,124.5849838256836 L147.0015106201172,126.4527587890625 L147.03988647460938,128.22825622558594 L147.11361694335938,129.74258422851562 L147.21823120117188,130.78561401367188 L147.32574462890625,131.34097290039062 M168.78759765625,120.76510620117188 L168.5691680908203,120.65104675292969 L168.13059997558594,120.5302963256836 L167.43246459960938,120.50306701660156 L166.49830627441406,120.70790100097656 L165.3528594970703,121.21770477294922 L164.09649658203125,122.06769561767578 L162.8335418701172,123.24607849121094 L161.68910217285156,124.69046020507812 L160.79409790039062,126.30856323242188 L160.27352905273438,127.98713684082031 L160.2384490966797,129.59805297851562 L160.854248046875,130.963623046875 L162.13255310058594,131.93450927734375 L163.93911743164062,132.41297912597656 L165.64767456054688,132.51573181152344 L166.8346405029297,132.42727661132812 M178.4522705078125,122.30489349365234 L178.0778350830078,122.08543395996094 L177.42604064941406,121.85897827148438 L176.52394104003906,121.78654479980469 L175.489013671875,122.06439971923828 L174.39126586914062,122.7553482055664 L173.33677673339844,123.8515625 L172.4579620361328,125.26332092285156 L171.91917419433594,126.85017395019531 L171.8402099609375,128.41221618652344 L172.27337646484375,129.73883056640625 L173.21182250976562,130.6514129638672 L174.56947326660156,131.04150390625 L176.1915283203125,130.8832550048828 L177.8925018310547,130.2305908203125 L179.44924926757812,129.19712829589844 L180.67652893066406,127.9375 L181.46817016601562,126.60620880126953 L181.79734802246094,125.35560607910156 L181.70697021484375,124.30938720703125 L181.31423950195312,123.53996276855469 L180.7605743408203,123.06218719482422 L180.20887756347656,122.84186553955078 L179.80589294433594,122.7818832397461 L179.59420776367188,122.79414367675781 M188.3378448486328,115.95347595214844 L188.1495819091797,116.39376831054688 L187.8702850341797,117.28628540039062 L187.55760192871094,118.66837310791016 L187.28684997558594,120.4456787109375 L187.06251525878906,122.51470947265625 L186.89361572265625,124.73857879638672 L186.7894744873047,126.96675109863281 L186.83653259277344,129.00526428222656 L187.1139678955078,130.65699768066406 L187.6360321044922,131.8074493408203 L188.1961669921875,132.44146728515625 L188.62518310546875,132.68682861328125 M199.29766845703125,125.33515167236328 L199.1610565185547,124.84331512451172 L198.8449249267578,124.10305786132812 L198.28427124023438,123.28577423095703 L197.46803283691406,122.66986846923828 L196.41111755371094,122.3761215209961 L195.17214965820312,122.48712921142578 L193.84974670410156,123.03459930419922 L192.591796875,124.01937103271484 L191.54721069335938,125.37420654296875 L190.86758422851562,126.94842529296875 L190.65821838378906,128.53619384765625 L190.96107482910156,129.9229736328125 L191.7296142578125,130.9276123046875 L192.88018798828125,131.4034423828125 L194.2740478515625,131.2639923095703 L195.78013610839844,130.4768829345703 L197.2994842529297,129.09121704101562 L198.75076293945312,127.2281723022461 L200.05661010742188,125.08026123046875 L201.1712188720703,122.84868621826172 L202.041015625,120.73078155517578 L202.6424102783203,118.85791778564453 L203.0045623779297,117.3365707397461 L203.16294860839844,116.22099304199219 L203.18161010742188,115.58329010009766 L203.09458923339844,115.46928405761719 L202.92124938964844,115.93914031982422 L202.67214965820312,116.99772644042969 L202.36904907226562,118.61438751220703 L202.043701171875,120.67076873779297 L201.76708984375,123.01942443847656 L201.6085662841797,125.47940063476562 L201.6284637451172,127.84135437011719 L201.8395233154297,129.89329528808594 L202.112548828125,131.34454345703125 L202.33602905273438,132.13475036621094 M221.4097900390625,124.80833435058594 L221.23452758789062,124.43453216552734 L220.8777618408203,123.86750030517578 L220.2971649169922,123.24066925048828 L219.47280883789062,122.76736450195312 L218.40736389160156,122.5625991821289 L217.1439971923828,122.6985855102539 L215.79745483398438,123.19103240966797 L214.51812744140625,124.03048706054688 L213.4656219482422,125.16203308105469 L212.7537841796875,126.46223449707031 L212.466796875,127.79042053222656 L212.6340789794922,128.97486877441406 L213.248779296875,129.85330200195312 L214.25450134277344,130.3021240234375 L215.5696258544922,130.2548370361328 L217.0751953125,129.69943237304688 L218.624755859375,128.69754028320312 L220.08975219726562,127.37425231933594 L221.3356475830078,125.91461944580078 L222.2657012939453,124.52330780029297 L222.86441040039062,123.37059783935547 L223.15765380859375,122.56270599365234 L223.21829223632812,122.16092681884766 L223.12583923339844,122.19766235351562 L222.91526794433594,122.71209716796875 L222.6154022216797,123.7210693359375 L222.27154541015625,125.15599060058594 L221.99232482910156,126.87084197998047 L221.90574645996094,128.6396484375 L222.08740234375,130.2210235595703 L222.3971405029297,131.34286499023438 L222.6875,131.9537353515625 M235.3045196533203,122.0897216796875 L235.0134735107422,121.79855346679688 L234.39935302734375,121.43757629394531 L233.40374755859375,121.15653991699219 L232.0937957763672,121.146728515625 L230.59573364257812,121.43614196777344 L229.1335906982422,121.99473571777344 L227.95364379882812,122.7494888305664 L227.25567626953125,123.63976287841797 L227.1554718017578,124.58888244628906 L227.65484619140625,125.54243469238281 L228.66859436035156,126.46224975585938 L230.02694702148438,127.32435607910156 L231.50804138183594,128.1272735595703 L232.8407745361328,128.86944580078125 L233.80313110351562,129.53282165527344 L234.2256317138672,130.10379028320312 L234.060791015625,130.5800323486328 L233.341552734375,130.96124267578125 L232.17453002929688,131.25335693359375 L230.72512817382812,131.43690490722656 L229.24078369140625,131.49632263183594 L227.9507293701172,131.42819213867188 L227.07630920410156,131.3058319091797 L226.63893127441406,131.1949920654297 M248.46826171875,120.6563720703125 L248.4183807373047,120.86238098144531 L248.30189514160156,121.36530303955078 L248.10044860839844,122.2443618774414 L247.84742736816406,123.48194885253906 L247.61074829101562,124.96910858154297 L247.4662628173828,126.54656219482422 L247.50279235839844,128.02684020996094 L247.7827911376953,129.22445678710938 L248.3230438232422,129.98219299316406 L249.1295166015625,130.2164306640625 L250.14938354492188,129.90081787109375 L251.27593994140625,129.0968475341797 L252.39537048339844,127.95049285888672 L253.37826538085938,126.67151641845703 L254.12974548339844,125.47454071044922 L254.6260986328125,124.52780151367188 L254.87826538085938,123.9375 L254.9368133544922,123.75851440429688 L254.8738555908203,124.02520751953125 L254.7464141845703,124.75675964355469 L254.64178466796875,125.89505767822266 L254.6661834716797,127.26856994628906 L254.9189910888672,128.6610870361328 L255.48013305664062,129.84442138671875 L256.367919921875,130.6385498046875 L257.5294189453125,130.93179321289062 L258.8757019042969,130.67581176757812 L260.2791442871094,129.8731689453125 L261.58074951171875,128.61093139648438 L262.63824462890625,127.0556411743164 L263.3351135253906,125.42147827148438 L263.62774658203125,123.8913803100586 L263.57415771484375,122.60962677001953 L263.3028259277344,121.63392639160156 L263.0020751953125,121.01101684570312 L262.7953186035156,120.69701385498047 M268.314208984375,120.57734680175781 L268.3005065917969,120.84056854248047 L268.2734375,121.42267608642578 L268.22796630859375,122.38607025146484 L268.1407165527344,123.68232727050781 L267.9991149902344,125.22484588623047 L267.81512451171875,126.84989929199219 L267.61041259765625,128.3922576904297 L267.4441223144531,129.63751220703125 L267.371337890625,130.41220092773438 L267.4052734375,130.65127563476562 L267.49658203125,130.55050659179688 L267.5916442871094,130.3297119140625 M269.42388916015625,114.65065002441406 L269.449462890625,114.60488891601562 L269.53076171875,114.65705108642578 L269.63507080078125,114.77718353271484 L269.72967529296875,114.93535614013672 M273.1348876953125,120.83770751953125 L273.159912109375,120.8823471069336 L273.1793212890625,121.14073181152344 L273.1551513671875,121.75790405273438 L273.03802490234375,122.8084487915039 L272.81549072265625,124.20856475830078 L272.52532958984375,125.78114318847656 L272.23077392578125,127.3070297241211 L272.0107421875,128.6033477783203 L271.91094970703125,129.53628540039062 L271.9281005859375,130.0249786376953 L272.03448486328125,130.00975036621094 L272.24102783203125,129.47122192382812 L272.5709228515625,128.4281005859375 L273.0714111328125,126.99005126953125 L273.78045654296875,125.31920623779297 L274.7108154296875,123.60836029052734 L275.82086181640625,122.0264663696289 L277.06060791015625,120.71827697753906 L278.34466552734375,119.79165649414062 L279.58306884765625,119.33589172363281 L280.68096923828125,119.40155029296875 L281.55865478515625,120.00503540039062 L282.14599609375,121.09861755371094 L282.4306640625,122.62141418457031 L282.445068359375,124.46640014648438 L282.2886962890625,126.48069763183594 L282.08087158203125,128.48049926757812 L281.96209716796875,130.18557739257812 L282.02545166015625,131.32931518554688 L282.30584716796875,131.7821807861328 L282.65093994140625,131.74490356445312 L282.93389892578125,131.5027313232422 M291.4788818359375,113.0135498046875 L291.489013671875,113.16267395019531 L291.45989990234375,113.62171936035156 L291.3468017578125,114.5399169921875 L291.11456298828125,115.96336364746094 L290.78765869140625,117.81643676757812 L290.40399169921875,119.95374298095703 L290.026611328125,122.1946792602539 L289.734130859375,124.35259246826172 L289.56414794921875,126.24117279052734 L289.51287841796875,127.70831298828125 L289.53594970703125,128.63577270507812 L289.57635498046875,129.0788116455078 M287.675048828125,122.88501739501953 L287.88739013671875,122.88195037841797 L288.43402099609375,122.89160919189453 L289.41827392578125,122.9161605834961 L290.80389404296875,122.92865753173828 L292.45965576171875,122.88557434082031 L294.235595703125,122.72889709472656 L295.98956298828125,122.42617797851562 L297.626708984375,121.9552993774414 L299.06329345703125,121.32987976074219 L300.191650390625,120.57733154296875 L300.9017333984375,119.77172088623047 L301.1392822265625,119.0108871459961 L300.87884521484375,118.41798400878906 L300.151611328125,118.10008239746094 L299.04248046875,118.15087127685547 L297.67626953125,118.61730194091797 L296.21142578125,119.50244903564453 L294.867431640625,120.76398468017578 L293.8427734375,122.31478118896484 L293.2950439453125,124.02299499511719 L293.3326416015625,125.73966217041016 L293.97991943359375,127.30752563476562 L295.18292236328125,128.5576629638672 L296.84771728515625,129.3577117919922 L298.82159423828125,129.62477111816406 L300.9132080078125,129.3412628173828 L302.93511962890625,128.5766143798828 L304.7178955078125,127.45726013183594 L306.1318359375,126.11849975585938 L307.117431640625,124.70223999023438 L307.68585205078125,123.34619140625 L307.9234619140625,122.16128540039062 L307.94757080078125,121.24186706542969 L307.8582763671875,120.66465759277344 L307.712890625,120.50019073486328 L307.5042724609375,120.79180908203125 L307.218505859375,121.57172393798828 L306.892333984375,122.78512573242188 L306.6009521484375,124.2972183227539 L306.41064453125,125.90048217773438 L306.369873046875,127.38502502441406 L306.44635009765625,128.57740783691406 L306.592041015625,129.37832641601562 L306.74658203125,129.71194458007812 L306.88995361328125,129.55410766601562 L307.01141357421875,128.8826446533203 L307.12213134765625,127.73931121826172 L307.231689453125,126.25318908691406 L307.36810302734375,124.5863265991211 L307.55816650390625,122.90328979492188 L307.85009765625,121.35221862792969 L308.28680419921875,120.01242065429688 L308.8795166015625,118.93769836425781 L309.62078857421875,118.1653060913086 L310.47454833984375,117.70191192626953 L311.417236328125,117.55608367919922 L312.3890380859375,117.68852233886719 L313.32855224609375,118.015380859375 L314.05279541015625,118.3624496459961 L314.48797607421875,118.61022186279297 M320.1578369140625,110.0 L320.2796630859375,110.17109680175781 L320.4344482421875,110.59065246582031 L320.5513916015625,111.29876708984375 L320.5384521484375,112.27767181396484 L320.39703369140625,113.42987060546875 L320.15863037109375,114.61868286132812 L319.93109130859375,115.56736755371094 L319.7799072265625,116.15642547607422 M329.6607666015625,121.49057006835938 L329.49420166015625,121.2666244506836 L329.12042236328125,120.94779968261719 L328.482666015625,120.62393951416016 L327.5911865234375,120.42364501953125 L326.52032470703125,120.40548706054688 L325.40643310546875,120.6027603149414 L324.41387939453125,121.00956726074219 L323.70953369140625,121.61978912353516 L323.42205810546875,122.39362335205078 L323.63189697265625,123.27305603027344 L324.3748779296875,124.21116638183594 L325.59600830078125,125.16925048828125 L327.14007568359375,126.12225341796875 L328.77001953125,127.04639434814453 L330.227783203125,127.9084701538086 L331.28375244140625,128.67726135253906 L331.79608154296875,129.31927490234375 L331.70477294921875,129.80374145507812 L331.036376953125,130.1162109375 L329.8392333984375,130.2284393310547 L328.29571533203125,130.14974975585938 L326.6300048828125,129.93443298339844 L325.27874755859375,129.70164489746094 L324.4500732421875,129.53363037109375 M345.49017333984375,121.91900634765625 L345.53564453125,121.89590454101562 L345.58074951171875,122.02001953125 L345.59344482421875,122.44761657714844 L345.515869140625,123.32661437988281 L345.3038330078125,124.66851806640625 L344.94610595703125,126.43348693847656 L344.44854736328125,128.51516723632812 L343.82928466796875,130.76724243164062 L343.14715576171875,133.0026092529297 L342.48028564453125,135.0301513671875 L341.90283203125,136.65267944335938 L341.48614501953125,137.7449493408203 L341.272705078125,138.22325134277344 L341.25592041015625,138.07635498046875 L341.4130859375,137.31491088867188 L341.7266845703125,135.9921875 L342.1781005859375,134.21633911132812 L342.75439453125,132.14418029785156 L343.4732666015625,129.935791015625 L344.33837890625,127.75203704833984 L345.35784912109375,125.70904541015625 L346.52777099609375,123.8999252319336 L347.8192138671875,122.40817260742188 L349.1763916015625,121.31257629394531 L350.5618896484375,120.68614196777344 L351.91241455078125,120.56924438476562 L353.16107177734375,120.95219421386719 L354.2359619140625,121.78675842285156 L355.04205322265625,122.95687103271484 L355.48406982421875,124.31177520751953 L355.52142333984375,125.7019271850586 L355.11895751953125,126.98259735107422 L354.29022216796875,128.03851318359375 L353.09136962890625,128.8158416748047 L351.6282958984375,129.2945098876953 L350.04583740234375,129.4633331298828 L348.566162109375,129.3578338623047 L347.3590087890625,129.04315185546875 L346.5743408203125,128.6905059814453 L346.18994140625,128.42665100097656 M357.10003662109375,126.57803344726562 L357.55889892578125,126.2991714477539 L358.3856201171875,125.77210998535156 L359.51806640625,124.99546813964844 L360.739013671875,124.05534362792969 L361.879150390625,123.00828552246094 L362.791015625,121.9289321899414 L363.39385986328125,120.90145874023438 L363.65570068359375,120.01411437988281 L363.57415771484375,119.35366821289062 L363.14117431640625,119.00920867919922 L362.36041259765625,119.04113006591797 L361.2706298828125,119.50051879882812 L359.98651123046875,120.39234161376953 L358.70733642578125,121.64781188964844 L357.63604736328125,123.13833618164062 L357.052001953125,124.71591186523438 L357.1300048828125,126.20502471923828 L357.89306640625,127.46477508544922 L358.8809814453125,128.33140563964844 L359.70269775390625,128.79159545898438 M374.866455078125,122.640625 L374.62005615234375,122.30272674560547 L374.10614013671875,121.82772827148438 L373.2874755859375,121.3594970703125 L372.2010498046875,121.123291015625 L370.9091796875,121.21378326416016 L369.52557373046875,121.67033386230469 L368.201904296875,122.46424865722656 L367.110595703125,123.54251861572266 L366.40716552734375,124.78694152832031 L366.174072265625,126.04949951171875 L366.4415283203125,127.16189575195312 L367.17327880859375,127.9664306640625 L368.29083251953125,128.34597778320312 L369.7034912109375,128.25392150878906 L371.27252197265625,127.69277954101562 L372.83978271484375,126.73295593261719 L374.26702880859375,125.50011444091797 L375.43096923828125,124.17898559570312 L376.2733154296875,122.95211029052734 L376.8079833984375,121.98267364501953 L377.05810546875,121.37358093261719 L377.069580078125,121.18358612060547 L376.91021728515625,121.43370056152344 L376.6336669921875,122.1362075805664 L376.33740234375,123.23187255859375 L376.13739013671875,124.59174346923828 L376.13409423828125,126.02796173095703 L376.50689697265625,127.29388427734375 L377.35430908203125,128.17864990234375 L378.64691162109375,128.5760955810547 L379.92950439453125,128.61448669433594 L380.8599853515625,128.48770141601562 M386.83966064453125,120.92091369628906 L386.4686279296875,120.79208374023438 L385.79833984375,120.70585632324219 L384.83087158203125,120.80046844482422 L383.689453125,121.21353912353516 L382.4769287109375,121.95430755615234 L381.37451171875,122.97154998779297 L380.5479736328125,124.13578796386719 L380.27313232421875,125.32102966308594 L380.684326171875,126.3844985961914 L381.76611328125,127.20973205566406 L382.98968505859375,127.72213745117188 L383.9434814453125,127.96131896972656 M391.28216552734375,125.86759185791016 L391.65032958984375,125.75611877441406 L392.3775634765625,125.47672271728516 L393.4635009765625,124.98243713378906 L394.76666259765625,124.26554870605469 L396.138427734375,123.36701965332031 L397.40362548828125,122.35635375976562 L398.40606689453125,121.32643127441406 L399.01202392578125,120.37139129638672 L399.119384765625,119.58399963378906 L398.6953125,119.0372543334961 L397.77386474609375,118.79727935791016 L396.448974609375,118.92223358154297 L394.888916015625,119.4303970336914 L393.3231201171875,120.2879409790039 L391.9951171875,121.41309356689453 L391.1651611328125,122.7086181640625 L391.03887939453125,124.06607055664062 L391.74407958984375,125.380615234375 L393.27813720703125,126.53754425048828 L395.62774658203125,127.4100341796875 L398.55816650390625,127.91080474853516 L401.735595703125,128.0367431640625 L404.352294921875,127.94140625 L405.99822998046875,127.7863998413086 " fill="none" stroke="black" stroke-linecap="round" stroke-width="1.2" /></svg>